<svg width="1020" height="1020" viewBox="0 0 1020 1020" fill="none" xmlns="http://www.w3.org/2000/svg">
<g filter="url(#filter0_d_2016_11)">
<rect x="10" width="1000" height="1000" rx="101" fill="white"/>
<rect x="33" y="23" width="954" height="954" rx="101" fill="#D0A000"/>
<path d="M816.272 590.795C814.719 575.133 808.053 562.966 796.274 554.293C784.495 545.621 768.51 541.285 748.318 541.285C734.597 541.285 723.012 543.226 713.563 547.11C704.114 550.863 696.866 556.106 691.818 562.836C686.899 569.567 684.44 577.204 684.44 585.747C684.181 592.866 685.669 599.079 688.905 604.386C692.271 609.693 696.866 614.288 702.691 618.171C708.515 621.925 715.246 625.225 722.883 628.073C730.52 630.791 738.674 633.121 747.347 635.063L783.072 643.606C800.416 647.489 816.337 652.666 830.834 659.138C845.331 665.61 857.887 673.571 868.501 683.019C879.115 692.468 887.334 703.6 893.159 716.415C899.113 729.229 902.155 743.92 902.284 760.488C902.155 784.823 895.942 805.921 883.645 823.783C871.478 841.516 853.874 855.302 830.834 865.139C807.924 874.847 780.289 879.701 747.929 879.701C715.829 879.701 687.87 874.782 664.053 864.945C640.366 855.107 621.857 840.546 608.524 821.259C595.322 801.844 588.397 777.833 587.75 749.227H669.101C670.007 762.559 673.826 773.691 680.557 782.622C687.417 791.424 696.542 798.09 707.933 802.62C719.453 807.021 732.461 809.222 746.958 809.222C761.197 809.222 773.558 807.151 784.042 803.009C794.656 798.867 802.876 793.107 808.7 785.729C814.525 778.351 817.437 769.872 817.437 760.294C817.437 751.363 814.784 743.855 809.477 737.772C804.299 731.688 796.663 726.511 786.566 722.239C776.6 717.968 764.368 714.085 749.871 710.59L706.574 699.717C673.049 691.562 646.579 678.813 627.164 661.468C607.748 644.123 598.105 620.76 598.234 591.377C598.105 567.302 604.512 546.268 617.456 528.276C630.529 510.284 648.456 496.24 671.237 486.144C694.018 476.048 719.906 471 748.9 471C778.412 471 804.17 476.048 826.174 486.144C848.308 496.24 865.524 510.284 877.82 528.276C890.117 546.268 896.459 567.108 896.848 590.795H816.272Z" fill="#1E1E1E"/>
<path d="M447.957 476.436H531.056V753.693C531.056 779.321 525.296 801.585 513.776 820.483C502.385 839.381 486.529 853.942 466.207 864.168C445.886 874.394 422.263 879.506 395.34 879.506C371.394 879.506 349.648 875.3 330.103 866.886C310.688 858.343 295.284 845.4 283.894 828.055C272.503 810.581 266.873 788.641 267.002 762.236H350.684C350.943 772.72 353.078 781.716 357.091 789.223C361.233 796.601 366.864 802.297 373.983 806.309C381.231 810.192 389.774 812.134 399.611 812.134C409.966 812.134 418.704 809.933 425.823 805.533C433.071 801.002 438.572 794.401 442.326 785.729C446.08 777.056 447.957 766.378 447.957 753.693V476.436Z" fill="#1E1E1E"/>
</g>
<defs>
<filter id="filter0_d_2016_11" x="0" y="0" width="1020" height="1020" filterUnits="userSpaceOnUse" color-interpolation-filters="sRGB">
<feFlood flood-opacity="0" result="BackgroundImageFix"/>
<feColorMatrix in="SourceAlpha" type="matrix" values="0 0 0 0 0 0 0 0 0 0 0 0 0 0 0 0 0 0 127 0" result="hardAlpha"/>
<feOffset dy="10"/>
<feGaussianBlur stdDeviation="5"/>
<feComposite in2="hardAlpha" operator="out"/>
<feColorMatrix type="matrix" values="0 0 0 0 0 0 0 0 0 0 0 0 0 0 0 0 0 0 0.25 0"/>
<feBlend mode="normal" in2="BackgroundImageFix" result="effect1_dropShadow_2016_11"/>
<feBlend mode="normal" in="SourceGraphic" in2="effect1_dropShadow_2016_11" result="shape"/>
</filter>
</defs>
</svg>
